<svg viewBox="-0.5 0 48 48" xmlns="http://www.w3.org/2000/svg">
  <g fill="none" fill-rule="evenodd">
    <path d="M9.827 24c0-1.524.254-2.986.705-4.356L2.623 13.604A23.716 23.716 0 0 0 .214 24c0 3.737.867 7.261 2.406 10.388l7.905-6.051A13.89 13.89 0 0 1 9.827 24" fill="#FBBC05"/>
    <path d="M23.714 10.133c3.311 0 6.302 1.174 8.652 3.094l6.836-6.827C35.036 2.773 29.695.533 23.714.533 14.427.533 6.445 5.844 2.623 13.604l7.91 6.04c1.822-5.532 7.017-9.51 13.181-9.51" fill="#EB4335"/>
    <path d="M23.714 37.867c-6.165 0-11.36-3.979-13.181-9.51l-7.91 6.037c3.822 7.761 11.804 13.072 21.09 13.072 5.733 0 11.205-2.036 15.312-5.849l-7.507-5.804c-2.118 1.335-4.786 2.053-7.804 2.053" fill="#34A853"/>
    <path d="M46.145 24c0-1.387-.213-2.88-.534-4.267H23.714V28.8h12.604c-.63 3.091-2.346 5.468-4.8 7.014l7.507 5.804c4.314-3.994 7.12-9.969 7.12-17.618" fill="#4285F4"/>
  </g>
</svg>
